# xmcd
#
# Track frame offsets:
#	182
#	18870
#	41912
#	59087
#	75575
#	96205
#	109670
#	126380
#	142395
#	160357
#	175720
#	189030
#
# Disc length: 2811 seconds
# Revision: 6
# Processed by: cddbd v1.5.2PL0 Copyright (c) Steve Scherf et al.
# Submitted via: dBpowerAMP V12.0
#
DISCID=a40af90c
DTITLE=Rodney Crowell - The Rodney Crowell Collection
DYEAR=1989
DGENRE=Country
TTITLE0=Ashes by Now
TTITLE1='Til I Gain Control Again
TTITLE2=Violà, An American Dream
TTITLE3=Queen of Hearts
TTITLE4=Shame on the Moon
TTITLE5=Old Pipeliner
TTITLE6=Stars on the Water
TTITLE7=Heartbroke
TTITLE8=I Don't Have to Crawl
TTITLE9=Leaving Louisiana in the Broad Daylight
TTITLE10=Victim or a Fool
TTITLE11=I Ain't Living Long Like This
EXTD=
EXTT0=
EXTT1=
EXTT2=
EXTT3=
EXTT4=
EXTT5=
EXTT6=
EXTT7=
EXTT8=
EXTT9=
EXTT10=
EXTT11=
PLAYORDER=
